<svg xmlns="http://www.w3.org/2000/svg" xmlns:xlink="http://www.w3.org/1999/xlink" width="59.386" height="9.744" viewBox="0 0 59.386 9.744">
  <defs>
    <clipPath id="clip-path">
      <rect width="59.386" height="9.744" fill="none"/>
    </clipPath>
  </defs>
  <g clip-path="url(#clip-path)">
    <path id="Path_101" data-name="Path 101" d="M475.017,105.729a.422.422,0,0,1-.111.222,3.54,3.54,0,0,1-2.892,1.279,3.945,3.945,0,0,1-3-1.279,4.761,4.761,0,0,1,0-6.117,3.7,3.7,0,0,1,2.947-1.335,3.9,3.9,0,0,1,3,1.168c.056.111.111.167.111.222a3.642,3.642,0,0,1-.389.834,7.1,7.1,0,0,1-.5.834c-.056.056-.056.056-.111.056a1.231,1.231,0,0,1-.278-.222c-.222-.167-.445-.334-.612-.445a2.18,2.18,0,0,0-1-.222,1.687,1.687,0,0,0-1.39.667,2.5,2.5,0,0,0,0,3,1.687,1.687,0,0,0,1.39.667,2.18,2.18,0,0,0,1-.222,3.742,3.742,0,0,0,.612-.389,1.23,1.23,0,0,1,.278-.222c.056,0,.056,0,.111.056s.222.334.5.723c.167.445.334.667.334.723Z" transform="translate(-467.9 -97.995)" fill="#3b3a3a"/>
    <path id="Path_102" data-name="Path 102" d="M489.252,102.893a4.42,4.42,0,0,1-1.168,3.114,4.3,4.3,0,0,1-6.117,0,4.327,4.327,0,0,1-1.168-3.114,4.42,4.42,0,0,1,1.168-3.114,4.3,4.3,0,0,1,6.117,0,4.516,4.516,0,0,1,1.168,3.114Zm-2.224,0a2.013,2.013,0,0,0-.556-1.5,1.793,1.793,0,0,0-1.446-.667,1.872,1.872,0,0,0-1.446.667,2.192,2.192,0,0,0-.556,1.5,2.013,2.013,0,0,0,.556,1.5,1.748,1.748,0,0,0,1.446.612,1.872,1.872,0,0,0,1.446-.667,2.224,2.224,0,0,0,.556-1.446Z" transform="translate(-473.627 -97.995)" fill="#3b3a3a"/>
    <path id="Path_103" data-name="Path 103" d="M504.729,103.015a4.454,4.454,0,0,1-1.112,3,3.719,3.719,0,0,1-2.78,1.223h-3.67c-.111,0-.167-.056-.167-.111,0-.445,0-1.112.056-1.946.056-.89.056-1.5.056-1.946s0-1.112-.056-2.057c-.056-.89-.056-1.613-.056-2.057q0-.083.167-.167a8.692,8.692,0,0,1,1.39-.056,23.709,23.709,0,0,1,2.391.056,4.773,4.773,0,0,1,2.224.723,3.233,3.233,0,0,1,1.168,1.5,5.43,5.43,0,0,1,.389,1.835Zm-2.28,0a2.225,2.225,0,0,0-.612-1.613,2.057,2.057,0,0,0-1.613-.667c-.612,0-.89.056-.89.222v4.226c0,.167.334.278.945.278a2.057,2.057,0,0,0,1.613-.667,2.724,2.724,0,0,0,.556-1.779Z" transform="translate(-480.819 -98.173)" fill="#3b3a3a"/>
    <path id="Path_104" data-name="Path 104" d="M517.872,105.539c0,.167-.056.5-.111.945a3.443,3.443,0,0,1-.167.89.289.289,0,0,1-.222.111H517.2a23.812,23.812,0,0,0-2.558-.056h-2.725c-.111,0-.222-.056-.222-.167,0-.445,0-1.112.055-2s.056-1.557.056-2,0-1.279-.056-2.5c0-.334-.055-.778-.055-1.39v-.056c0-.111.055-.111.167-.111H517.2c.223,0,.334.056.334.222,0,.111.056.389.111.834a6.353,6.353,0,0,1,.056.834.12.12,0,0,1-.111.111h-.111a26.143,26.143,0,0,0-2.836-.111c-.222,0-.334.056-.389.167a2.994,2.994,0,0,0-.056.445,1.2,1.2,0,0,0,.111.556.648.648,0,0,0,.389.111h.5a13.545,13.545,0,0,0,1.5-.056.979.979,0,0,0,.334-.056h.334c.111,0,.167.056.167.111a4.944,4.944,0,0,0-.111.89,5.4,5.4,0,0,0-.056.945c0,.056-.056.111-.167.111a4.536,4.536,0,0,1-.556-.056c-.222,0-.723-.056-1.557-.056h-.612c-.167,0-.278.056-.278.111v.389a1.248,1.248,0,0,0,.056.556c.056.167.334.222.778.278h.89a6.824,6.824,0,0,0,.945-.056,6.432,6.432,0,0,1,.945-.056c0-.111.056-.056.056.111Z" transform="translate(-487.345 -98.306)" fill="#3b3a3a"/>
    <path id="Path_105" data-name="Path 105" d="M545.229,107.529a.2.2,0,0,1-.056.167.431.431,0,0,0-.167.056c-.222,0-.556.056-1,.056a4.011,4.011,0,0,1-1.056-.056.147.147,0,0,1-.167-.167,13.211,13.211,0,0,1,.056-1.335c0-.612.056-1.056.056-1.335a.327.327,0,0,0-.111-.278,17.407,17.407,0,0,0-2.78,0c-.111,0-.111.111-.111.278,0,.278,0,.723.056,1.335v1.335c0,.111-.056.167-.167.222-.111,0-.5.056-1.112.056a4.262,4.262,0,0,1-1-.056.147.147,0,0,1-.167-.167c0-.389,0-1.056.056-1.835.056-.834.056-1.446.056-1.891s0-1.112-.056-2-.056-1.557-.056-2c0-.111.056-.111.111-.111h2.224a.12.12,0,0,1,.111.111,12.274,12.274,0,0,1-.055,1.279,12.248,12.248,0,0,0-.056,1.279c0,.111.056.222.111.222a19.552,19.552,0,0,0,2.947,0c.111,0,.111-.111.111-.222a11.348,11.348,0,0,0-.055-1.223c0-.556-.056-.945-.056-1.223a.148.148,0,0,1,.167-.167h2c.111,0,.167.056.167.111,0,.445,0,1.112-.056,2s-.056,1.557-.056,2c0,.389,0,1.057.056,1.891.055.667.055,1.279.055,1.668Z" transform="translate(-498.799 -98.573)" fill="#3b3a3a"/>
    <path id="Path_106" data-name="Path 106" d="M558.594,105.783c0,.167-.056.445-.111.89a2.378,2.378,0,0,1-.167.834c-.056.056-.111.111-.167.111h-.167a22.473,22.473,0,0,0-2.447-.056h-2.669a.147.147,0,0,1-.167-.167c0-.445,0-1.056.055-1.946.056-.834.056-1.5.056-1.946s0-1.223-.056-2.447c0-.278-.055-.778-.055-1.39v-.056c0-.111.055-.111.167-.111h5.116c.222,0,.334.056.334.222,0,.111.055.334.111.778a6.282,6.282,0,0,1,.056.778.12.12,0,0,1-.111.111h-.111a24.673,24.673,0,0,0-2.78-.111c-.223,0-.334.056-.389.167a2.1,2.1,0,0,0-.056.445.8.8,0,0,0,.111.5.531.531,0,0,0,.389.111h.5a12.1,12.1,0,0,0,1.446-.056.979.979,0,0,0,.334-.056h.334c.111,0,.167.056.167.111a4.955,4.955,0,0,0-.111.89,4.789,4.789,0,0,0-.056.89c0,.056-.056.111-.167.111a3.434,3.434,0,0,1-.5-.056c-.222,0-.723-.056-1.5-.056h-.611a.327.327,0,0,0-.278.111v.334a1.247,1.247,0,0,0,.056.556c.056.167.334.222.723.278h.834a5.765,5.765,0,0,0,.89-.056,6.141,6.141,0,0,1,.89-.056c.056.167.112.222.112.334Z" transform="translate(-505.547 -98.439)" fill="#3b3a3a"/>
    <path id="Path_107" data-name="Path 107" d="M569.772,101.491c0,.056-.056.056-.111.056-.278,0-.723,0-1.334-.056a13.2,13.2,0,0,0-1.335-.056,1.744,1.744,0,0,0-.667.056c-.167.056-.222.222-.222.556s.111.556.278.612c.056,0,.222.056.334.056a9.932,9.932,0,0,0,1.168-.056,10.952,10.952,0,0,1,1.168-.056q.167,0,.167,1a3.488,3.488,0,0,1-.056,1c0,.056-.056.111-.167.111.056,0-.055,0-.389-.056a16.85,16.85,0,0,0-1.89-.056h-.445c-.222.056-.278.111-.278.222,0,.556,0,1.168.056,1.891.055.612.055.89.055.834,0,.111-.111.167-.389.167h-.5a7.938,7.938,0,0,1-1.39-.056.178.178,0,0,1-.167-.167c0-.445,0-1.056.056-1.891s.056-1.5.056-1.891c0-.5,0-1.112-.056-1.891-.056-1.168-.111-1.779-.111-1.891v-.056a.147.147,0,0,1,.167-.167h2.558c.334,0,.778,0,1.39-.056s1.056-.056,1.39-.056a.3.3,0,0,1,.334.222v.723a4.316,4.316,0,0,1,.056.5.455.455,0,0,1,.278.445Z" transform="translate(-510.386 -98.484)" fill="#3b3a3a"/>
    <path id="Path_108" data-name="Path 108" d="M531.954,103.88c.056.056,0,.167,0,.334a4.047,4.047,0,0,1-2.28,2.669,4.2,4.2,0,0,1-3.559.111,4.813,4.813,0,0,1-2.5-2.613,5.125,5.125,0,0,1-.278-3.614,4.13,4.13,0,0,1,2.335-2.669,3.921,3.921,0,0,1,3.5-.167.769.769,0,0,1,.222.167,3.861,3.861,0,0,1-.056,1.057,4.321,4.321,0,0,1-.167,1.056c0,.056-.056.056-.111.111a.96.96,0,0,1-.389-.111,2.232,2.232,0,0,0-.834-.167,2.257,2.257,0,0,0-1.057.222,2.1,2.1,0,0,0-1.112,1.279,3.117,3.117,0,0,0,.167,1.724,2.775,2.775,0,0,0,1.168,1.335,1.95,1.95,0,0,0,1.668.056,3.391,3.391,0,0,0,.89-.667,4.109,4.109,0,0,0,.445-.723l.167-.334h.167q.167.083.834.5a3.86,3.86,0,0,1,.779.445Z" transform="translate(-492.419 -97.592)" fill="#3b3a3a"/>
  </g>
</svg>
