<svg xmlns="http://www.w3.org/2000/svg" width="6.774" height="16.685" viewBox="0 0 6.774 16.685">
  <g id="Laurel-L" transform="translate(-0.416 0.306) rotate(-3)" opacity="0.798">
    <g id="Group_69" data-name="Group 69" transform="translate(0 0)">
      <path id="Path_75" data-name="Path 75" d="M4.355,13.6c-.038-.038-.115-.038-.153-.076a.29.29,0,0,0-.153-.076c-.115-.076-.229-.115-.344-.191-.038-.038-.115-.076-.153-.115s-.115-.076-.153-.115a10.909,10.909,0,0,1-1.261-1.108l-.573-.688a2.32,2.32,0,0,0-.267-.382c-.076-.115-.153-.267-.229-.382a5.633,5.633,0,0,1-.382-.841A5.949,5.949,0,0,1,.382,8.75L.306,8.521c0-.076-.038-.153-.038-.229L.229,8.177.191,8.062c0-.076-.038-.153-.038-.229a7.418,7.418,0,0,1-.076-.917q0-.115,0-.229t0-.229q0-.115,0-.229T.076,6V5.77A.484.484,0,0,1,.115,5.54c0-.076.038-.153.038-.229s.038-.153.038-.229a7.2,7.2,0,0,1,.535-1.6A11.115,11.115,0,0,1,1.49,2.14,8.2,8.2,0,0,1,3.056.5L3.133.42c.038,0,.038-.038.076-.038.038-.038.115-.076.153-.115A.8.8,0,0,1,3.591.115,2,2,0,0,1,3.782,0a2,2,0,0,0-.191.115.8.8,0,0,0-.229.153.527.527,0,0,1-.153.115c-.038,0-.038.038-.076.038L3.056.5a8.216,8.216,0,0,0-1.6,1.643A8.788,8.788,0,0,0,.688,3.477c-.038.076-.038.115-.076.191,0,.038-.038.076-.038.115S.535,3.859.535,3.9c-.038.115-.115.267-.153.42s-.076.267-.115.42c0,.038-.038.076-.038.115a.14.14,0,0,1-.038.115c0,.076-.038.153-.038.229s-.038.153-.038.229L.076,5.54v.115c0,.076-.038.153-.038.229A.484.484,0,0,1,0,6.114v.917a8.057,8.057,0,0,0,.076.955,8.479,8.479,0,0,0,.191.955l.077.229L.42,9.4c.038.076.038.153.076.229s.038.153.076.229a9.2,9.2,0,0,0,.42.879c.153.267.344.535.5.8a.671.671,0,0,0,.153.191c.038.038.038.076.076.076l.076.076c.038.076.115.115.153.191l.153.153a4.913,4.913,0,0,0,.649.611,8.386,8.386,0,0,0,.688.535,6.627,6.627,0,0,0,.688.42c.115.076.229.115.344.191C4.508,13.985,4.431,13.641,4.355,13.6Z" transform="translate(1.872 1.643)" fill="#34404b"/>
      <g id="Group_68" data-name="Group 68">
        <g id="Group_67" data-name="Group 67">
          <g id="Group_55" data-name="Group 55" transform="translate(3.464 13.182)">
            <path id="Path_76" data-name="Path 76" d="M.487,0C.6,0,.678,0,.716.115A.287.287,0,0,1,.754.306c0,.076,0,.191,0,.306A2.424,2.424,0,0,1,.6,1.49a3.394,3.394,0,0,1-.191.382A1.223,1.223,0,0,0,.372,1.6c0-.076,0-.153,0-.267,0-.038,0-.115,0-.153s0-.115,0-.153A2.711,2.711,0,0,1,.411.459.931.931,0,0,1,.449.191,1.219,1.219,0,0,1,.411.459a2.534,2.534,0,0,0-.038.573c0,.191,0,.42,0,.573,0,.076,0,.153,0,.191s0,.076,0,.076a.744.744,0,0,1-.229-.306L.029,1.223a1.088,1.088,0,0,1,0-.5A1.211,1.211,0,0,1,.22.191.4.4,0,0,1,.487,0Z" transform="translate(2.161 0)" fill="#34404b"/>
            <path id="Path_77" data-name="Path 77" d="M.05,1.032A.8.8,0,0,0,.2,1.261c.038.038.076.076.115.076.038.038.076.038.115.076a1.057,1.057,0,0,0,.344.038,2.288,2.288,0,0,0,.458-.076,1.822,1.822,0,0,0,.611-.306A3.121,3.121,0,0,0,2.189.764a.909.909,0,0,0,.229-.42S2.3.382,2.113.459a2.631,2.631,0,0,1-.306.115c-.115.038-.229.076-.382.115A6.881,6.881,0,0,1,.7.879.672.672,0,0,1,.47.917H.394A.118.118,0,0,0,.47.879.543.543,0,0,0,.7.8L1.043.688c.076,0,.115-.038.191-.076s.115-.038.191-.076A1.358,1.358,0,0,0,1.769.382,2.631,2.631,0,0,0,2.075.267L2.3.153A.118.118,0,0,1,2.381.115C2.342.115,2.3.076,2.189.038A.744.744,0,0,0,1.884,0H1.425c-.076,0-.191.038-.306.038A1.115,1.115,0,0,0,.776.115a1.369,1.369,0,0,0-.42.153A.588.588,0,0,0,.127.42C-.026.726-.026.879.05,1.032Z" transform="translate(0 1.949)" fill="#34404b"/>
          </g>
          <g id="Group_56" data-name="Group 56" transform="translate(2.238 12.495)">
            <path id="Path_78" data-name="Path 78" d="M.726,0C.84,0,.879.038.917.153c0,.038.038.115,0,.191C.917.42.879.535.879.65a1.891,1.891,0,0,1-.153.5,1.5,1.5,0,0,1-.153.344A1.168,1.168,0,0,1,.306,1.8a1.224,1.224,0,0,1,.038-.267A3,3,0,0,1,.42.993C.458.8.5.611.535.459A1.231,1.231,0,0,1,.611.229,1.231,1.231,0,0,0,.535.459C.5.535.5.611.458.688S.42.879.382.955c-.038.191-.076.382-.115.535a1.222,1.222,0,0,0-.038.267,1.166,1.166,0,0,1-.191-.344C.038,1.376,0,1.3,0,1.261V1.07A.485.485,0,0,1,.038.841.974.974,0,0,1,.115.573,2.654,2.654,0,0,1,.229.267.833.833,0,0,1,.382.076.29.29,0,0,1,.535,0Z" transform="translate(2.308 0)" fill="#34404b"/>
            <path id="Path_79" data-name="Path 79" d="M.016.65A.14.14,0,0,0,.054.764C.054.8.092.841.13.879c.038.076.115.115.191.191a2.632,2.632,0,0,0,.306.115h.42a1.116,1.116,0,0,0,.344-.076A1.864,1.864,0,0,0,1.659.993,1.668,1.668,0,0,0,2.041.764,1.068,1.068,0,0,0,2.346.382a2.815,2.815,0,0,1-.306.076C2,.459,1.926.5,1.888.5s-.115.038-.153.038a1.177,1.177,0,0,1-.382.038c-.115,0-.267.038-.382.038A1.057,1.057,0,0,0,.627.65H.283A2.36,2.36,0,0,0,.627.611,1.057,1.057,0,0,0,.971.573c.115,0,.268-.038.382-.038A3.065,3.065,0,0,0,2.041.382,2.814,2.814,0,0,0,2.346.306C2.308.267,2.27.267,2.193.229A2.646,2.646,0,0,0,1.888.115.14.14,0,0,1,1.773.076.14.14,0,0,1,1.659.038C1.582.038,1.506,0,1.391,0H.742A.983.983,0,0,0,.054.191.94.94,0,0,0,.016.65Z" transform="translate(0 1.719)" fill="#34404b"/>
          </g>
          <g id="Group_57" data-name="Group 57" transform="translate(1.261 11.601)">
            <path id="Path_80" data-name="Path 80" d="M.955.015c.076.038.153.076.153.191,0,.038,0,.115,0,.191A.611.611,0,0,1,.993.7a5.12,5.12,0,0,1-.229.459,2.118,2.118,0,0,1-.229.306,1.444,1.444,0,0,1-.306.267s0-.038,0-.076a1.653,1.653,0,0,0,.038-.191A2.652,2.652,0,0,1,.459.97a4.275,4.275,0,0,0,.191-.5A1.079,1.079,0,0,0,.764.244L.649.473A3.094,3.094,0,0,0,.42.97c-.038.076-.076.191-.115.267a.543.543,0,0,0-.076.229c-.038.076-.038.115-.076.153A.133.133,0,0,1,.115,1.7.866.866,0,0,1,0,1.314,1.057,1.057,0,0,1,.038.97,2.151,2.151,0,0,1,.191.512,1.008,1.008,0,0,1,.535.091C.764.015.879-.023.955.015Z" transform="translate(2.33 0)" fill="#34404b"/>
            <path id="Path_81" data-name="Path 81" d="M0,.449a.614.614,0,0,0,.191.42A1.166,1.166,0,0,0,.917,1.1a3.3,3.3,0,0,0,.649-.038,1.077,1.077,0,0,0,.42-.153A.685.685,0,0,0,2.33.6H1.337A1.3,1.3,0,0,1,.955.564C.84.564.726.525.649.525S.458.487.42.487h0A.568.568,0,0,1,.649.525.949.949,0,0,1,.955.564H2.292A.529.529,0,0,0,2.139.449C2.1.411,2.063.411,2.025.373S1.91.334,1.872.3A3.931,3.931,0,0,0,.84.029a.782.782,0,0,0-.42,0A.552.552,0,0,0,.153.105C.038.143,0,.3,0,.449Z" transform="translate(0 1.324)" fill="#34404b"/>
          </g>
          <g id="Group_58" data-name="Group 58" transform="translate(0.52 10.584)">
            <path id="Path_82" data-name="Path 82" d="M1.047.038c.038.038.076.038.115.076A.14.14,0,0,1,1.2.229,1.657,1.657,0,0,0,1.162.42a2.191,2.191,0,0,1-.153.267A3.337,3.337,0,0,1,.7,1.07a1.765,1.765,0,0,1-.267.267,1.677,1.677,0,0,1-.344.191L.207,1.3C.283,1.184.36.993.474.841S.665.535.742.42C.78.382.818.306.856.267L.894.229.856.267.742.382C.665.5.551.65.436.8a2.854,2.854,0,0,0-.267.458,1.081,1.081,0,0,0-.115.229.516.516,0,0,1-.038-.382A1.417,1.417,0,0,1,.092.764,1.558,1.558,0,0,1,.321.344,1.031,1.031,0,0,1,.742,0,.744.744,0,0,1,1.047.038Z" transform="translate(2.443 0)" fill="#34404b"/>
            <path id="Path_83" data-name="Path 83" d="M.014.367A.528.528,0,0,0,.129.825a1.035,1.035,0,0,0,.649.344c.115.038.229.038.344.076H1.39a1.373,1.373,0,0,0,.42-.076A.929.929,0,0,0,2.192.94,1.73,1.73,0,0,1,1.886.9.288.288,0,0,1,1.733.863C1.7.863,1.619.825,1.581.825,1.466.787,1.351.787,1.237.749A3.224,3.224,0,0,1,.587.558C.4.481.282.443.282.443A2.807,2.807,0,0,0,.587.52c.191.038.42.115.649.153s.458.076.649.115a1.731,1.731,0,0,0,.306.038C2.154.787,2.154.749,2.077.711A1.457,1.457,0,0,0,1.848.52,2.5,2.5,0,0,0,.893.1,1.051,1.051,0,0,0,.244.023.556.556,0,0,0,.014.367Z" transform="translate(0 0.78)" fill="#34404b"/>
          </g>
          <g id="Group_59" data-name="Group 59" transform="translate(0.115 9.476)">
            <path id="Path_84" data-name="Path 84" d="M1.156.076a.17.17,0,0,1,.076.229.29.29,0,0,1-.076.153A1.013,1.013,0,0,1,.965.688,2.466,2.466,0,0,1,.621.993c-.115.076-.191.153-.267.191A1.124,1.124,0,0,1,.01,1.3l.038-.038a.529.529,0,0,0,.115-.153A1.553,1.553,0,0,1,.506.726,2.878,2.878,0,0,1,.85.382.458.458,0,0,0,1,.229L.85.382A2.919,2.919,0,0,0,.506.726a3.1,3.1,0,0,0-.344.382c-.038.038-.076.115-.115.115L.01,1.261A.6.6,0,0,1,.048.917,1.276,1.276,0,0,1,.506.267,1.515,1.515,0,0,1,.965,0,1.8,1.8,0,0,1,1.156.076Z" transform="translate(2.397 0)" fill="#34404b"/>
            <path id="Path_85" data-name="Path 85" d="M.038.344A.485.485,0,0,0,0,.573.543.543,0,0,0,.076.8C.115.841.115.879.153.917l.115.115a.738.738,0,0,0,.344.191,1.283,1.283,0,0,0,.573.153.781.781,0,0,0,.42,0,.944.944,0,0,0,.42-.153.118.118,0,0,1-.076-.038.645.645,0,0,1-.191-.076c-.076-.038-.191-.076-.267-.115C1.452.955,1.375.955,1.337.917S1.222.879,1.184.841A2.273,2.273,0,0,1,.879.688,1.664,1.664,0,0,1,.611.535,2.773,2.773,0,0,1,.344.382,1.056,1.056,0,0,1,.611.535C.688.573.8.611.879.65A.768.768,0,0,1,1.184.8c.229.076.42.153.611.229.077.038.153.038.191.076a.133.133,0,0,1,.076.038c0-.038-.038-.076-.076-.153A1.009,1.009,0,0,0,1.8.764,1.343,1.343,0,0,0,1.452.5C1.375.459,1.3.382,1.222.344S1.031.229.955.191A1.206,1.206,0,0,0,.344,0,.543.543,0,0,0,.038.344Z" transform="translate(0 0.191)" fill="#34404b"/>
          </g>
          <g id="Group_60" data-name="Group 60" transform="translate(0 7.948)">
            <path id="Path_86" data-name="Path 86" d="M1.375.091c.038.038.038.076.076.115V.321a1.378,1.378,0,0,1-.344.344A1.429,1.429,0,0,1,.726.894a.609.609,0,0,1-.306.115,1.679,1.679,0,0,1-.344.038L.229.894C.267.856.344.817.42.741A.833.833,0,0,0,.611.588.834.834,0,0,0,.8.435C.879.4.917.359.993.321A1.981,1.981,0,0,1,1.184.206,1.975,1.975,0,0,0,.993.321.833.833,0,0,1,.8.435C.726.474.649.55.573.588A4.383,4.383,0,0,0,.191.894,1.377,1.377,0,0,0,0,1.047V.932A.14.14,0,0,1,.038.817C.038.779.076.741.076.7.115.626.191.55.267.435A1.343,1.343,0,0,1,.611.168.911.911,0,0,1,1.07.015C1.222-.023,1.337.015,1.375.091Z" transform="translate(2.101 0.405)" fill="#34404b"/>
            <path id="Path_87" data-name="Path 87" d="M.076.267C.038.344,0,.382,0,.459V.573A.14.14,0,0,0,.038.688,2.2,2.2,0,0,0,.191.955,1.092,1.092,0,0,0,.5,1.223a2.316,2.316,0,0,0,.535.267,1.68,1.68,0,0,0,.382.076.778.778,0,0,0,.42-.076A.656.656,0,0,1,1.6,1.337,3.073,3.073,0,0,1,1.07.993.53.53,0,0,0,.917.879L.8.764C.726.688.649.65.573.573.5.535.458.459.42.42A.118.118,0,0,0,.344.382.118.118,0,0,1,.42.42C.458.459.535.5.573.535.649.573.726.65.8.688.879.764.993.8,1.07.879a1.622,1.622,0,0,1,.267.191c.038.038.076.038.115.076s.076.038.115.076l.229.115A1.111,1.111,0,0,0,1.6.955C1.566.917,1.528.841,1.49.8S1.413.688,1.337.65C1.3.573,1.223.535,1.146.459S.993.344.917.267A.945.945,0,0,0,.344,0,1.762,1.762,0,0,0,.076.267Z" transform="translate(0 0)" fill="#34404b"/>
          </g>
          <g id="Group_61" data-name="Group 61" transform="translate(0.181 6.305)">
            <path id="Path_88" data-name="Path 88" d="M1.413.206a.14.14,0,0,1,.038.115.14.14,0,0,1-.038.115L1.3.55,1.07.665A1.718,1.718,0,0,1,.344.894.409.409,0,0,1,0,.856,1.991,1.991,0,0,0,.191.741,4.16,4.16,0,0,1,.611.512L.84.4A.647.647,0,0,1,1.031.321c.076-.038.115-.038.153-.076A.037.037,0,0,0,1.222.206a1.607,1.607,0,0,1-.191.076,3.719,3.719,0,0,0-.42.191A4.162,4.162,0,0,0,.191.7C.115.741.076.779.038.779A.037.037,0,0,0,0,.817.14.14,0,0,1,.038.7.837.837,0,0,0,.153.512C.191.474.229.435.229.4L.344.282A1.194,1.194,0,0,1,.726.091a.832.832,0,0,1,.5-.076A.461.461,0,0,1,1.413.206Z" transform="translate(1.92 0.787)" fill="#34404b"/>
            <path id="Path_89" data-name="Path 89" d="M.125.191A.506.506,0,0,0,.01.611.508.508,0,0,0,.125.879C.163.917.2.993.239,1.032s.076.115.153.153a1.8,1.8,0,0,0,.458.344,2.628,2.628,0,0,0,.382.153,2.266,2.266,0,0,0,.42.038l-.191-.191-.42-.42A4.573,4.573,0,0,1,.621.65,1.691,1.691,0,0,1,.43.42L.621.611l.42.42a3.437,3.437,0,0,0,.458.382.529.529,0,0,1,.153.115.118.118,0,0,0,.076.038.831.831,0,0,0-.115-.42A3.129,3.129,0,0,0,1.08.382L.812.115A.33.33,0,0,0,.583,0,.73.73,0,0,0,.125.191Z" transform="translate(0 0)" fill="#34404b"/>
          </g>
          <g id="Group_62" data-name="Group 62" transform="translate(0.688 4.757)">
            <path id="Path_90" data-name="Path 90" d="M1.528.22A.18.18,0,0,1,1.49.449,1.156,1.156,0,0,1,1.108.64,1.779,1.779,0,0,1,.382.716.645.645,0,0,1,.038.64,1.6,1.6,0,0,1,.229.564,3.181,3.181,0,0,1,.688.411C.764.373.84.373.917.334A.416.416,0,0,1,1.108.3.668.668,0,0,1,1.3.258.668.668,0,0,0,1.108.3C1.031.3.993.334.879.334A.542.542,0,0,0,.649.411L.191.525A.289.289,0,0,1,.038.564H0A.684.684,0,0,1,.191.3C.229.258.267.22.306.22A.2.2,0,0,1,.458.143,1.121,1.121,0,0,1,.84.029a.9.9,0,0,1,.458,0A.3.3,0,0,1,1.528.22Z" transform="translate(1.566 1.175)" fill="#34404b"/>
            <path id="Path_91" data-name="Path 91" d="M.153.057A.527.527,0,0,0,.038.21.344.344,0,0,0,0,.4.746.746,0,0,0,.038.669.675.675,0,0,0,.229.974a1.605,1.605,0,0,0,.687.611,1.023,1.023,0,0,0,.382.076.037.037,0,0,0-.038-.038.529.529,0,0,1-.115-.153A4.755,4.755,0,0,1,.8,1.013C.764.974.726.936.726.9.688.86.688.821.649.783.611.707.535.63.5.554A.944.944,0,0,0,.344.325,1.753,1.753,0,0,0,.5.554C.535.63.611.707.649.783s.115.153.191.267c.115.153.267.344.344.458a.527.527,0,0,0,.114.153l.038.038A.891.891,0,0,0,1.3,1.28c0-.038-.038-.115-.038-.153-.038-.076-.038-.115-.076-.191A2.856,2.856,0,0,0,.917.478C.764.248.649.1.535.057A.345.345,0,0,0,.153.057Z" transform="translate(0 0)" fill="#34404b"/>
          </g>
          <g id="Group_63" data-name="Group 63" transform="translate(1.435 3.261)">
            <path id="Path_92" data-name="Path 92" d="M1.566.267c0,.076,0,.153-.076.191C1.452.5,1.413.5,1.337.535c-.076,0-.153.038-.267.038H.649C.535.573.42.535.344.535A.731.731,0,0,1,.038.382H.076A.289.289,0,0,0,.229.344C.344.306.5.306.688.267c.153,0,.306-.038.42-.038h0A2.192,2.192,0,0,0,.649.267C.5.267.344.306.191.306A.463.463,0,0,0,0,.344.037.037,0,0,1,.038.306L.076.267A.528.528,0,0,1,.229.153,1.859,1.859,0,0,1,.5.038,1.307,1.307,0,0,1,.917,0a1.426,1.426,0,0,1,.458.076C1.49.115,1.566.191,1.566.267Z" transform="translate(1.239 1.515)" fill="#34404b"/>
            <path id="Path_93" data-name="Path 93" d="M.246.025A.475.475,0,0,0,.017.331.624.624,0,0,0,.017.6.616.616,0,0,0,.132.942,2.423,2.423,0,0,0,.4,1.4a1.764,1.764,0,0,0,.267.267.751.751,0,0,0,.344.153.118.118,0,0,0-.038-.076C.934,1.706.934,1.668.9,1.592a3.1,3.1,0,0,1-.229-.5C.59.9.514.713.437.56A1.238,1.238,0,0,0,.361.331,1.078,1.078,0,0,0,.475.56C.552.713.628.9.7,1.095s.191.344.267.5c.038.076.076.115.076.153a.118.118,0,0,1,.038.076c0-.038.038-.076.038-.153s0-.153,0-.267A2.682,2.682,0,0,0,.9.522,2.244,2.244,0,0,0,.743.216C.7.14.628.063.59.063A.371.371,0,0,0,.246.025Z" transform="translate(0 0)" fill="#34404b"/>
          </g>
          <g id="Group_64" data-name="Group 64" transform="translate(2.483 1.933)">
            <path id="Path_94" data-name="Path 94" d="M1.413.382A.21.21,0,0,1,1.3.573c-.038,0-.076.038-.153.038H.917A1.13,1.13,0,0,1,.535.535.973.973,0,0,0,.267.459.951.951,0,0,1,0,.267H.191a1.713,1.713,0,0,1,.42.038c.153,0,.306.038.42.038a.464.464,0,0,1,.191.038A.669.669,0,0,1,1.031.344C.917.306.764.306.611.267.458.267.306.229.191.229H0A.037.037,0,0,1,.038.191L.076.153A.292.292,0,0,1,.267.076,2.421,2.421,0,0,1,.535,0H.917a.88.88,0,0,1,.42.153A.409.409,0,0,1,1.413.382Z" transform="translate(0.993 1.773)" fill="#34404b"/>
            <path id="Path_95" data-name="Path 95" d="M.306.016A.377.377,0,0,0,.038.283.484.484,0,0,0,0,.513,1.058,1.058,0,0,0,.038.856a1.274,1.274,0,0,0,.191.459,3.532,3.532,0,0,1,.191.306,1.917,1.917,0,0,0,.306.229.118.118,0,0,0-.038-.076c0-.038-.038-.115-.038-.153A3.9,3.9,0,0,0,.5,1.086C.458.895.42.7.382.551A1.22,1.22,0,0,1,.344.283.817.817,0,0,0,.382.513C.42.665.458.856.5,1.047a3.978,3.978,0,0,0,.153.5c.038.076.038.115.076.153a.133.133,0,0,0,.038.076.865.865,0,0,0,.115-.382A2.185,2.185,0,0,0,.84.551C.8.436.8.321.764.245A.838.838,0,0,0,.649.054.539.539,0,0,0,.306.016Z" transform="translate(0 0)" fill="#34404b"/>
          </g>
          <g id="Group_65" data-name="Group 65" transform="translate(3.689 0.841)">
            <path id="Path_96" data-name="Path 96" d="M1.375.552c0,.076-.038.115-.153.153H1.07C.993.7.917.667.84.667A2.372,2.372,0,0,1,.229.4,1.257,1.257,0,0,1,0,.17.669.669,0,0,1,.191.208c.115.038.267.076.42.115S.879.4.993.437a1.608,1.608,0,0,1,.191.076A1.608,1.608,0,0,0,.993.437.646.646,0,0,1,.8.361C.726.323.649.323.611.284.458.246.306.208.191.17.153.17.076.132.038.132H0A.589.589,0,0,1,.267.017a.624.624,0,0,1,.267,0A1.681,1.681,0,0,1,.917.093a.653.653,0,0,1,.344.229A.229.229,0,0,1,1.375.552Z" transform="translate(0.666 1.817)" fill="#34404b"/>
            <path id="Path_97" data-name="Path 97" d="M.4,0A.39.39,0,0,0,.093.191.41.41,0,0,0,.017.42a1.008,1.008,0,0,0,0,.344,1.5,1.5,0,0,0,.229.764A.853.853,0,0,0,.514,1.8a1.068,1.068,0,0,0-.038-.229c0-.153-.038-.344-.038-.535S.437.65.437.5s0-.229,0-.229,0,.115,0,.229q0,.115,0,.229c0,.038,0,.076,0,.153,0,.038,0,.076,0,.153a1.694,1.694,0,0,0,.076.5c0,.076.038.115.038.153s0,.076,0,.076A.715.715,0,0,0,.7,1.414c0-.038.038-.115.038-.153A1.655,1.655,0,0,0,.781,1.07a1.871,1.871,0,0,0,.038-.5A.746.746,0,0,0,.781.267.292.292,0,0,0,.7.076.72.72,0,0,0,.4,0Z" transform="translate(0 0)" fill="#34404b"/>
          </g>
          <g id="Group_66" data-name="Group 66" transform="translate(5.028 0)">
            <path id="Path_98" data-name="Path 98" d="M1.222.764c-.038.153-.191.191-.535,0A1.605,1.605,0,0,1,.153.382C.038.267,0,.191,0,.153H.038c.038,0,.076.038.115.038A3.951,3.951,0,0,0,.535.344C.611.382.649.42.726.42.8.459.84.5.879.5l.153.076L.879.5A.29.29,0,0,0,.726.42C.649.382.611.344.535.306.267.191,0,.038,0,.038.038,0,.153,0,.267,0A.746.746,0,0,1,.535.038,1.36,1.36,0,0,1,.879.191a.725.725,0,0,1,.306.267C1.261.611,1.261.688,1.222.764Z" transform="translate(0.435 1.758)" fill="#34404b"/>
            <path id="Path_99" data-name="Path 99" d="M.512,0A.434.434,0,0,0,.206.115.835.835,0,0,0,.091.306.719.719,0,0,0,.015.611a1.4,1.4,0,0,0,.076.764,1.45,1.45,0,0,0,.191.306s0-.038,0-.076,0-.076,0-.153c0-.115.038-.306.038-.5,0-.038,0-.076,0-.153A.14.14,0,0,1,.359.688C.359.611.4.535.4.459A1.071,1.071,0,0,0,.435.229,1.071,1.071,0,0,1,.4.459C.4.535.359.611.359.688S.321.879.321.955c-.038.382-.038.726-.038.726a2.275,2.275,0,0,0,.229-.267c.038-.038.038-.076.076-.153.038-.038.038-.115.076-.153A3.968,3.968,0,0,0,.779.65C.779.535.817.42.817.344A.286.286,0,0,0,.779.153.256.256,0,0,0,.512,0Z" transform="translate(0 0)" fill="#34404b"/>
          </g>
        </g>
        <path id="Path_100" data-name="Path 100" d="M1.222.191c.038.153,0,.344-.344.459A.616.616,0,0,1,.535.764H.267A1.356,1.356,0,0,1,0,.726L.153.65A.29.29,0,0,1,.306.573.037.037,0,0,0,.344.535.037.037,0,0,0,.382.5C.42.5.458.459.5.459.573.42.611.382.688.382A.133.133,0,0,0,.764.344C.8.344.8.306.84.306A.418.418,0,0,0,.993.229L.84.306C.8.306.8.344.764.344A.133.133,0,0,0,.688.382C.611.42.573.459.5.459.458.459.42.5.382.5A.037.037,0,0,0,.344.535.037.037,0,0,0,.306.573C.229.611.191.65.153.65A.419.419,0,0,0,0,.726.665.665,0,0,1,.115.459C.153.42.153.382.191.344L.229.306A.133.133,0,0,1,.306.267,1.378,1.378,0,0,1,.649.076.977.977,0,0,1,1.07,0,.254.254,0,0,1,1.222.191Z" transform="translate(5.883 0.802)" fill="#34404b"/>
      </g>
    </g>
  </g>
</svg>
