<svg xmlns="http://www.w3.org/2000/svg" width="6.946" height="16.748" viewBox="0 0 6.946 16.748">
  <g id="LAurel-R" transform="translate(0.115 -0.086) rotate(4)" opacity="0.798">
    <g id="Group_53" data-name="Group 53" transform="translate(0 0)">
      <path id="Path_49" data-name="Path 49" d="M.108,13.7a.29.29,0,0,1,.153-.077c.038-.038.115-.077.153-.115A2.136,2.136,0,0,0,.72,13.32c.038-.038.115-.077.153-.115s.115-.077.153-.115A8.543,8.543,0,0,0,2.25,11.942a5.089,5.089,0,0,0,.535-.727c.076-.115.153-.268.229-.383a4.166,4.166,0,0,0,.23-.421,8.218,8.218,0,0,0,.382-.842,7.715,7.715,0,0,0,.268-.88l.038-.23c0-.077.038-.153.038-.23l.038-.115V8c0-.077.038-.153.038-.23a7.4,7.4,0,0,0,.038-.919v-.23q0-.115,0-.23v-.23a.487.487,0,0,0-.038-.23V5.7c0-.077-.038-.153-.038-.23s-.038-.153-.038-.23-.038-.153-.038-.23a9.942,9.942,0,0,0-.574-1.608,6.236,6.236,0,0,0-.8-1.3A8.962,8.962,0,0,0,.95.5L.873.421C.835.421.835.383.8.383.758.344.682.306.644.268A.8.8,0,0,0,.414.115,1.978,1.978,0,0,0,.223,0,1.978,1.978,0,0,1,.414.115a.8.8,0,0,1,.23.153A.2.2,0,0,0,.8.344c.038,0,.038.038.076.038L.95.459A7.863,7.863,0,0,1,2.632,2.067a8.475,8.475,0,0,1,.841,1.3c.038.077.077.115.077.191a.134.134,0,0,0,.038.077c0,.038.038.077.038.115.038.115.115.268.153.383a1.865,1.865,0,0,0,.153.421c0,.038.038.077.038.115s.038.077.038.115c.038.077.038.153.076.23,0,.077.038.153.038.23l.038.115.038.115c0,.077.038.153.038.23s.038.153.038.23v.23a.485.485,0,0,0,.038.23,1.85,1.85,0,0,1,0,.459,8,8,0,0,1-.038.957,8.311,8.311,0,0,1-.153.957l-.076.23-.076.23c-.038.077-.038.153-.077.23s-.038.153-.077.23a6.092,6.092,0,0,1-.382.88,5.653,5.653,0,0,1-.5.8.669.669,0,0,1-.153.191c-.038.038-.038.077-.076.077l-.076.077a.673.673,0,0,1-.153.191c-.038.077-.115.115-.153.191-.191.23-.421.459-.612.651a8.028,8.028,0,0,1-.65.536l-.689.459a1.544,1.544,0,0,1-.344.191C-.045,14.085.032,13.741.108,13.7Z" transform="translate(1.32 1.612)" fill="#34404b"/>
      <g id="Group_52" data-name="Group 52" transform="translate(0 0)">
        <g id="Group_51" data-name="Group 51" transform="translate(0.483 0)">
          <g id="Group_39" data-name="Group 39" transform="translate(0.716 13.242)">
            <path id="Path_50" data-name="Path 50" d="M.269,0a.232.232,0,0,0-.23.115A.288.288,0,0,0,0,.307V.614A3.411,3.411,0,0,0,.192,1.5a.657.657,0,0,0,.23.345s0-.115,0-.269c0-.077,0-.153,0-.269,0-.038,0-.115,0-.153s0-.115,0-.153C.422.806.384.576.384.422A.559.559,0,0,0,.346.192a.825.825,0,0,0,.038.23C.422.576.422.767.461,1c0,.192.038.422.038.576,0,.077,0,.153,0,.192s0,.077,0,.077A1.01,1.01,0,0,0,.729,1.5a1.122,1.122,0,0,0,.077-.345c0-.153,0-.307,0-.5A1.216,1.216,0,0,0,.614.115.884.884,0,0,0,.269,0Z" transform="translate(0 0)" fill="#34404b"/>
            <path id="Path_51" data-name="Path 51" d="M2.418.767,2.3,1c-.038.038-.077.077-.115.077-.038.038-.077.038-.115.077a.917.917,0,0,1-.345.077,2.3,2.3,0,0,1-.461-.077A1.84,1.84,0,0,1,.652.883,3.362,3.362,0,0,1,.269.576,1.158,1.158,0,0,1,0,.153S.115.192.307.269A2.646,2.646,0,0,0,.614.384C.729.422.844.46,1,.5c.269.077.537.115.729.153a.674.674,0,0,0,.23.038h0C1.88.691,1.8.652,1.727.652,1.612.614,1.5.614,1.382.576,1.3.576,1.266.537,1.19.537,1.113.5,1.075.5,1,.46.883.422.729.384.614.345A2.643,2.643,0,0,1,.307.23.547.547,0,0,0,.077.153.118.118,0,0,0,0,.115C.038.115.077.077.192.038A.749.749,0,0,1,.5,0H.96a.953.953,0,0,1,.307.038,1.12,1.12,0,0,1,.345.077c.153.038.307.077.422.115A1.673,1.673,0,0,1,2.3.384.266.266,0,0,1,2.418.767Z" transform="translate(0.576 2.11)" fill="#34404b"/>
          </g>
          <g id="Group_40" data-name="Group 40" transform="translate(1.592 12.512)">
            <path id="Path_52" data-name="Path 52" d="M.192,0C.077,0,.038.077,0,.153V.345A1.184,1.184,0,0,0,.077.652c.038.192.115.345.154.5A3.042,3.042,0,0,0,.384,1.5,1.172,1.172,0,0,0,.652,1.8a1.228,1.228,0,0,0-.038-.269C.576,1.381.537,1.19.5,1S.384.614.345.46A1.229,1.229,0,0,0,.269.23,1.229,1.229,0,0,1,.345.46c.038.077.038.153.077.23S.461.883.5.959A3.386,3.386,0,0,1,.614,1.5a1.228,1.228,0,0,1,.038.269A.719.719,0,0,0,.806,1.42c0-.038.038-.115.038-.153,0-.077,0-.115,0-.192A.487.487,0,0,0,.806.844.977.977,0,0,0,.729.576.772.772,0,0,0,.576.269.832.832,0,0,0,.422.077.291.291,0,0,0,.269,0Z" transform="translate(0 0)" fill="#34404b"/>
            <path id="Path_53" data-name="Path 53" d="M2.379.5a.141.141,0,0,1-.038.115c0,.038-.038.077-.038.115a.463.463,0,0,1-.192.192,2.666,2.666,0,0,1-.307.115c-.077,0-.115.038-.192.038h-.23c-.115,0-.23-.038-.345-.038C.921,1,.844,1,.729.959A4.188,4.188,0,0,1,.307.729.952.952,0,0,1,0,.384,2.819,2.819,0,0,0,.307.46.231.231,0,0,1,.46.5.231.231,0,0,1,.614.537c.115,0,.23.038.384.038a1.306,1.306,0,0,1,.384.038h.345A1.063,1.063,0,0,1,1.382.576C1.266.576,1.113.537,1,.537Q.595.48.307.422A2.824,2.824,0,0,1,0,.345C.038.307.077.307.153.269A1.3,1.3,0,0,1,.46.153.141.141,0,0,0,.576.115.141.141,0,0,0,.691.077C.768.077.844.038.959.038A.954.954,0,0,0,1.266,0h.345A1.015,1.015,0,0,1,2.3.153.65.65,0,0,1,2.379.5Z" transform="translate(0.96 1.765)" fill="#34404b"/>
          </g>
          <g id="Group_41" data-name="Group 41" transform="translate(2.317 11.598)">
            <path id="Path_54" data-name="Path 54" d="M.154.038C.077.077,0,.115,0,.23A.418.418,0,0,0,.038.422C.077.5.115.614.153.691a4.185,4.185,0,0,0,.23.422,2.133,2.133,0,0,0,.23.307.807.807,0,0,0,.307.23.119.119,0,0,0-.038-.077A.29.29,0,0,0,.806,1.42a4.294,4.294,0,0,0-.192-.5C.537.729.46.576.384.422A1.989,1.989,0,0,1,.269.23,1.989,1.989,0,0,0,.384.422a5.127,5.127,0,0,1,.23.46c.038.077.077.192.115.269l.115.23c.038.077.038.115.077.153a.134.134,0,0,0,.038.077,1.131,1.131,0,0,0,.115-.384A1.066,1.066,0,0,0,1.036.883,1.183,1.183,0,0,0,.844.422,1.047,1.047,0,0,0,.46,0,.748.748,0,0,0,.154.038Z" transform="translate(0 0)" fill="#34404b"/>
            <path id="Path_55" data-name="Path 55" d="M2.341.422a.607.607,0,0,1-.192.46,1.445,1.445,0,0,1-.691.269,1.759,1.759,0,0,1-.652-.038A1.08,1.08,0,0,1,.384.959.853.853,0,0,1,0,.652H.307A4.66,4.66,0,0,0,1,.614c.115,0,.269-.038.384-.038s.23-.038.307-.038S1.881.5,1.919.5h0c-.038,0-.154.038-.23.038S1.5.576,1.382.576,1.151.614,1,.614H.038L.154.5C.192.46.23.46.269.422S.345.384.422.345A3.364,3.364,0,0,1,1.458.038,1.723,1.723,0,0,1,1.881,0a.555.555,0,0,1,.269.077A.336.336,0,0,1,2.341.422Z" transform="translate(1.19 1.228)" fill="#34404b"/>
          </g>
          <g id="Group_42" data-name="Group 42" transform="translate(2.888 10.489)">
            <path id="Path_56" data-name="Path 56" d="M.115.115C.077.153.038.153.038.192A.141.141,0,0,0,0,.307.646.646,0,0,0,.077.5,2.183,2.183,0,0,0,.23.767a3.342,3.342,0,0,0,.307.384.719.719,0,0,0,.269.23,1.683,1.683,0,0,0,.345.192l-.115-.23A4.912,4.912,0,0,1,.768.883C.652.729.537.576.461.46.422.422.384.345.345.345L.307.307.345.345.461.46C.537.576.652.729.768.883s.23.307.307.422A2.016,2.016,0,0,1,1.19,1.5a2.959,2.959,0,0,0,.038-.384A.884.884,0,0,0,1.113.767,1.084,1.084,0,0,0,.844.345,1.036,1.036,0,0,0,.422,0C.269.077.192.077.115.115Z" transform="translate(0 0)" fill="#34404b"/>
            <path id="Path_57" data-name="Path 57" d="M2.187.232a.531.531,0,0,1-.115.46,1.3,1.3,0,0,1-.614.384c-.115.038-.23.038-.345.077-.115,0-.192.038-.269,0-.192,0-.307-.038-.422-.038A2.352,2.352,0,0,1,0,.922,1.739,1.739,0,0,0,.307.884.29.29,0,0,0,.461.846C.5.846.576.807.614.807.729.769.844.769.96.731A5.907,5.907,0,0,1,1.612.539C1.8.462,1.919.424,1.919.424S1.8.462,1.612.539A5.91,5.91,0,0,0,.96.731,4.7,4.7,0,0,1,.307.846,1.74,1.74,0,0,1,0,.884Q0,.827.115.769A1.457,1.457,0,0,1,.345.577,3.175,3.175,0,0,1,1.3.117C1.612,0,1.8-.037,1.957.04,2.072,0,2.149.117,2.187.232Z" transform="translate(1.42 0.843)" fill="#34404b"/>
          </g>
          <g id="Group_43" data-name="Group 43" transform="translate(3.218 9.475)">
            <path id="Path_58" data-name="Path 58" d="M.092.058C.015.134-.023.173.015.288A.29.29,0,0,0,.092.441a1.015,1.015,0,0,0,.192.23A2.482,2.482,0,0,0,.629.978a1.343,1.343,0,0,0,.307.192,1.6,1.6,0,0,0,.345.115l-.038-.038-.115-.115C1.051,1.017.9.9.783.748L.437.4A.46.46,0,0,1,.284.249.852.852,0,0,1,.476.4,2.8,2.8,0,0,1,.859.748a1.557,1.557,0,0,1,.345.384c.038.038.077.115.115.115l.038.038A1.487,1.487,0,0,0,1.32.94,1.577,1.577,0,0,0,.859.288.844.844,0,0,0,.4.058C.245-.019.169-.019.092.058Z" transform="translate(0 0)" fill="#34404b"/>
            <path id="Path_59" data-name="Path 59" d="M2,.184a.488.488,0,0,1,.038.23.545.545,0,0,1-.077.23c-.038.038-.038.077-.077.115L1.765.874a1.338,1.338,0,0,1-.345.23A2.5,2.5,0,0,1,.844,1.3a1.721,1.721,0,0,1-.422.038A1.148,1.148,0,0,1,0,1.22a.119.119,0,0,0,.077-.038A.648.648,0,0,0,.269,1.1c.077-.038.192-.077.269-.115C.576.951.652.951.691.913S.806.874.844.836A2.273,2.273,0,0,0,1.151.682,1.672,1.672,0,0,0,1.42.529,2.778,2.778,0,0,0,1.689.375,2.778,2.778,0,0,1,1.42.529a2.2,2.2,0,0,0-.269.153C1.036.721.96.8.844.836a2.957,2.957,0,0,1-.576.23C.192,1.1.115,1.1.077,1.143A.134.134,0,0,0,0,1.181c0-.038.038-.077.077-.153A1.018,1.018,0,0,1,.269.8,2.193,2.193,0,0,1,.576.529C.652.491.729.414.806.375S1,.26,1.075.222A.922.922,0,0,1,1.689.03.2.2,0,0,1,2,.184Z" transform="translate(1.627 0.181)" fill="#34404b"/>
          </g>
          <g id="Group_44" data-name="Group 44" transform="translate(3.387 7.911)">
            <path id="Path_60" data-name="Path 60" d="M.038.115A.141.141,0,0,0,0,.23V.345A.935.935,0,0,0,.345.652a3.374,3.374,0,0,1,.384.23A2.642,2.642,0,0,1,1.036,1a1.689,1.689,0,0,0,.346.038A1.387,1.387,0,0,0,1.19.883C1.151.844,1.075.806,1,.729.921.691.844.614.768.576S.614.46.537.422A.838.838,0,0,1,.345.307,2,2,0,0,0,.154.192,2,2,0,0,1,.345.307C.422.345.461.384.537.422a.8.8,0,0,1,.23.153c.154.115.307.192.422.269A1.387,1.387,0,0,1,1.382,1q0-.058,0-.115c0-.038,0-.077-.038-.077C1.343.767,1.3.729,1.3.691,1.267.614,1.19.537,1.113.422A1.35,1.35,0,0,0,.768.153.928.928,0,0,0,.269,0,.332.332,0,0,0,.038.115Z" transform="translate(0 0.359)" fill="#34404b"/>
            <path id="Path_61" data-name="Path 61" d="M1.689.167c.038.077.077.115.077.192q0,.058,0,.115a.141.141,0,0,1-.038.115,2.2,2.2,0,0,1-.154.269,1.766,1.766,0,0,1-.269.269,1.285,1.285,0,0,1-.5.269,2.075,2.075,0,0,1-.384.115A.972.972,0,0,1,0,1.472a1.752,1.752,0,0,0,.23-.153,3.9,3.9,0,0,0,.5-.345A.53.53,0,0,1,.883.858L1,.743c.077-.077.154-.115.23-.192C1.3.513,1.343.436,1.382.4A.119.119,0,0,1,1.458.359.119.119,0,0,0,1.382.4a.529.529,0,0,1-.154.115A1.016,1.016,0,0,0,1,.7C.921.781.806.82.729.9s-.192.115-.269.192c-.038.038-.077.038-.115.077S.269,1.2.23,1.242A.949.949,0,0,0,0,1.4a.67.67,0,0,1,.192-.384C.23.973.269.9.307.858S.384.743.46.7C.5.628.576.589.652.513A1.022,1.022,0,0,1,.883.321,1.124,1.124,0,0,1,1.42.014C1.5-.025,1.612.014,1.689.167Z" transform="translate(1.765 0)" fill="#34404b"/>
          </g>
          <g id="Group_45" data-name="Group 45" transform="translate(3.31 6.163)">
            <path id="Path_62" data-name="Path 62" d="M.038.269A.141.141,0,0,0,0,.384.141.141,0,0,0,.038.5.531.531,0,0,0,.192.614l.23.115a2.281,2.281,0,0,0,.729.192c.192,0,.307,0,.345-.038A1.987,1.987,0,0,1,1.3.767,4.189,4.189,0,0,0,.883.537L.653.422A.65.65,0,0,0,.461.345.29.29,0,0,0,.307.307.038.038,0,0,1,.269.269,1.609,1.609,0,0,0,.461.345,3.2,3.2,0,0,0,.921.5a3.723,3.723,0,0,0,.422.192c.077.038.115.038.153.077a.038.038,0,0,1,.038.038A.141.141,0,0,0,1.5.691.839.839,0,0,1,1.382.5L1.267.384A.531.531,0,0,0,1.113.269,1.2,1.2,0,0,0,.729.077,1.417,1.417,0,0,0,.23,0C.154.115.077.192.038.269Z" transform="translate(0 0.806)" fill="#34404b"/>
            <path id="Path_63" data-name="Path 63" d="M1.382.153A.464.464,0,0,1,1.5.537.713.713,0,0,1,1.42.806c-.038.038-.038.115-.077.153s-.077.115-.115.153a2.8,2.8,0,0,1-.422.345c-.154.077-.269.115-.346.153a.878.878,0,0,1-.422.038L.23,1.458l.422-.422a3.442,3.442,0,0,0,.384-.46,1.708,1.708,0,0,0,.192-.23,2.334,2.334,0,0,0-.192.23C.921.691.767.883.614,1.036l-.422.422c-.077.038-.115.115-.153.115L0,1.612a.835.835,0,0,1,.115-.422,3.533,3.533,0,0,1,.5-.806A1.777,1.777,0,0,1,.883.115.332.332,0,0,1,1.113,0,.488.488,0,0,1,1.382.153Z" transform="translate(1.842 0)" fill="#34404b"/>
          </g>
          <g id="Group_46" data-name="Group 46" transform="translate(3.016 4.613)">
            <path id="Path_64" data-name="Path 64" d="M.025.255a.181.181,0,0,0,.038.23A.722.722,0,0,0,.447.639a2.905,2.905,0,0,0,.729.077c.192,0,.269-.077.345-.077A1.6,1.6,0,0,0,1.33.562,3.973,3.973,0,0,0,.869.447C.793.409.716.409.639.371A1.668,1.668,0,0,1,.447.332.671.671,0,0,0,.255.294.671.671,0,0,1,.447.332C.524.332.6.371.678.371s.153.038.23.038c.154.038.345.077.461.115.077,0,.115.038.154.038H1.56A1.927,1.927,0,0,0,1.368.294C1.33.255,1.292.255,1.253.217S1.177.179,1.1.14A3.122,3.122,0,0,0,.678.025C.447-.013.332-.013.217.064A.315.315,0,0,0,.025.255Z" transform="translate(0 1.26)" fill="#34404b"/>
            <path id="Path_65" data-name="Path 65" d="M1.13.058c.038.038.115.077.115.153.038.077.038.115.077.192a.75.75,0,0,1-.038.269,1.366,1.366,0,0,1-.154.345,2.069,2.069,0,0,1-.652.652,1.643,1.643,0,0,1-.384.115.038.038,0,0,1,.038-.038.531.531,0,0,0,.115-.153c.077-.115.23-.307.345-.46A.2.2,0,0,0,.67.978C.708.94.708.9.746.863.785.787.861.71.9.633L1.015.4a.656.656,0,0,1-.153.23.8.8,0,0,1-.153.23,1.17,1.17,0,0,1-.192.269c-.115.192-.269.345-.345.46a.53.53,0,0,1-.115.153l-.038.038a1.445,1.445,0,0,1,0-.422c0-.038.038-.115.038-.153,0-.077.038-.115.077-.192a1.871,1.871,0,0,1,.23-.5A1.211,1.211,0,0,1,.746.058.347.347,0,0,1,1.13.058Z" transform="translate(1.812 0)" fill="#34404b"/>
          </g>
          <g id="Group_47" data-name="Group 47" transform="translate(2.549 3.139)">
            <path id="Path_66" data-name="Path 66" d="M0,.23C0,.307,0,.384.077.422.115.46.154.46.23.5.307.5.384.537.5.537H.921c.115,0,.23-.038.307-.038A.735.735,0,0,0,1.535.345H1.5A.29.29,0,0,1,1.343.307c-.115,0-.307-.038-.46-.038a1.549,1.549,0,0,0-.422,0H.921a1.721,1.721,0,0,1,.46.038.466.466,0,0,1,.192.038A.038.038,0,0,0,1.535.307L1.5.269A.529.529,0,0,0,1.343.153,1.865,1.865,0,0,0,1.075.038,1.44,1.44,0,0,0,.652,0a.818.818,0,0,0-.46.115C.077.077.038.153,0,.23Z" transform="translate(0 1.688)" fill="#34404b"/>
            <path id="Path_67" data-name="Path 67" d="M.861.038a.4.4,0,0,1,.23.307.628.628,0,0,1,0,.269A.62.62,0,0,1,.977.959a1.33,1.33,0,0,1-.269.46,1.78,1.78,0,0,1-.269.269.754.754,0,0,1-.345.153.119.119,0,0,1,.038-.077c.038-.038.038-.115.077-.153.077-.153.153-.307.23-.5A4.657,4.657,0,0,0,.631.576C.669.422.708.307.708.307L.631.537a2.051,2.051,0,0,1-.23.537c-.077.192-.192.384-.23.5-.038.077-.077.115-.077.153A.119.119,0,0,0,.055,1.8c0-.038-.038-.077-.038-.154a.625.625,0,0,1,0-.269A2.427,2.427,0,0,1,.209.5.771.771,0,0,1,.362.192.837.837,0,0,1,.516,0,1.063,1.063,0,0,1,.861.038Z" transform="translate(1.633 0)" fill="#34404b"/>
          </g>
          <g id="Group_48" data-name="Group 48" transform="translate(1.861 1.866)">
            <path id="Path_68" data-name="Path 68" d="M0,.345A.211.211,0,0,0,.115.537c.038,0,.077.038.154.038H.5C.652.537.767.537.883.5A1.874,1.874,0,0,0,1.151.384.956.956,0,0,0,1.42.192H1.228C1.113.192.959.23.806.23A1.379,1.379,0,0,0,.384.307.672.672,0,0,1,.192.345.672.672,0,0,0,.384.307C.5.269.652.269.806.23A1.721,1.721,0,0,1,1.228.192H1.42A.038.038,0,0,0,1.382.153L1.343.115A.293.293,0,0,0,1.151.038.569.569,0,0,0,.883,0,1.44,1.44,0,0,0,.5.038.716.716,0,0,0,.115.23C.038.153,0,.23,0,.345Z" transform="translate(0 1.895)" fill="#34404b"/>
            <path id="Path_69" data-name="Path 69" d="M.566.014a.406.406,0,0,1,.269.23C.873.321.873.4.911.475A1.066,1.066,0,0,1,.873.82a3.2,3.2,0,0,1-.154.46,2.147,2.147,0,0,1-.192.307.7.7,0,0,1-.307.23.119.119,0,0,1,.038-.077C.259,1.7.3,1.626.3,1.588c.038-.153.077-.345.115-.537A3,3,0,0,0,.489.513,1.227,1.227,0,0,0,.528.245,1.227,1.227,0,0,1,.489.513C.451.667.413.859.374,1.05s-.115.384-.153.537a.291.291,0,0,0-.038.153.134.134,0,0,1-.039.077.839.839,0,0,1-.115-.345,3.025,3.025,0,0,1,0-.844C.067.513.067.4.105.321A.844.844,0,0,1,.221.13.328.328,0,0,1,.566.014Z" transform="translate(1.506 0)" fill="#34404b"/>
          </g>
          <g id="Group_49" data-name="Group 49" transform="translate(1.023 0.806)">
            <path id="Path_70" data-name="Path 70" d="M0,.614C0,.691.077.729.153.767H.307A.546.546,0,0,0,.537.691,1.832,1.832,0,0,0,1.151.384c.115-.115.192-.192.192-.23a.671.671,0,0,0-.192.038C1.036.23.883.269.729.307S.46.384.345.422A1.612,1.612,0,0,0,.153.5,1.612,1.612,0,0,1,.345.422C.384.384.46.384.537.345S.691.307.729.269A2.386,2.386,0,0,0,1.113.153c.038,0,.115-.038.153-.038H1.3A.593.593,0,0,0,1.036,0H.767A.858.858,0,0,0,.384.115a.656.656,0,0,0-.345.23A.749.749,0,0,0,0,.614Z" transform="translate(0 1.842)" fill="#34404b"/>
            <path id="Path_71" data-name="Path 71" d="M.268,0A.391.391,0,0,1,.576.192a1.274,1.274,0,0,1,.115.23A.853.853,0,0,1,.729.767a1.9,1.9,0,0,1-.192.806,2.312,2.312,0,0,1-.23.269,1.075,1.075,0,0,1,.038-.23c0-.153.038-.345.038-.537s0-.384,0-.537,0-.23,0-.23,0,.115,0,.23q0,.115,0,.23c0,.038,0,.077,0,.153,0,.038,0,.077,0,.153,0,.192-.038.384-.038.537,0,.077,0,.115-.038.153,0,.038,0,.077,0,.077a1.443,1.443,0,0,1-.192-.307c0-.038-.038-.115-.038-.153A1.656,1.656,0,0,1,.038,1.19,1.883,1.883,0,0,1,0,.691V.384A.292.292,0,0,1,.077.192C.077.038.153,0,.268,0Z" transform="translate(1.266 0)" fill="#34404b"/>
          </g>
          <g id="Group_50" data-name="Group 50" transform="translate(0 0)">
            <path id="Path_72" data-name="Path 72" d="M.025.767C.1.921.217.959.562.767a2.04,2.04,0,0,0,.5-.384c.115-.115.154-.192.154-.269L1.177.153c-.038,0-.077.038-.115.038A1.56,1.56,0,0,0,.716.384C.639.422.6.46.524.5S.409.576.371.576L.217.652A.662.662,0,0,0,.371.537C.409.5.486.46.524.422.6.384.639.345.716.307A5.964,5.964,0,0,1,1.253.038,2.166,2.166,0,0,0,.985,0,.749.749,0,0,0,.716.038,1.367,1.367,0,0,0,.371.192,1.145,1.145,0,0,0,.064.46C-.013.614-.013.691.025.767Z" transform="translate(0 1.803)" fill="#34404b"/>
            <path id="Path_73" data-name="Path 73" d="M.307,0A.436.436,0,0,1,.614.115.842.842,0,0,1,.729.307.722.722,0,0,1,.806.614a2.146,2.146,0,0,1-.038.767,1.45,1.45,0,0,1-.192.307V1.612c0-.038,0-.077,0-.153A3.193,3.193,0,0,0,.5.959.29.29,0,0,0,.461.806.141.141,0,0,0,.422.691C.422.614.384.537.384.46A1.078,1.078,0,0,1,.346.23.559.559,0,0,1,.384.46c0,.077.038.153.038.23S.461.883.461.959c.038.384.077.729.077.729a.869.869,0,0,1-.23-.269C.269,1.381.269,1.343.23,1.266.192,1.228.192,1.151.153,1.113A3.982,3.982,0,0,1,.038.652.954.954,0,0,1,0,.345.288.288,0,0,1,.038.153.618.618,0,0,1,.307,0Z" transform="translate(0.754 0)" fill="#34404b"/>
          </g>
        </g>
        <path id="Path_74" data-name="Path 74" d="M.009.14C-.029.294.047.486.393.6L.738.716h.269A1.358,1.358,0,0,0,1.275.678L1.122.6C1.084.562,1.007.562.968.524A.038.038,0,0,1,.93.486.038.038,0,0,1,.892.447C.853.447.815.409.777.409A.65.65,0,0,0,.585.332.134.134,0,0,1,.508.294.134.134,0,0,1,.431.255.421.421,0,0,1,.278.179,1.631,1.631,0,0,0,.47.255c.038,0,.038,0,.077.038A.134.134,0,0,1,.623.332C.7.371.738.371.815.409.853.409.892.447.93.447A.038.038,0,0,1,.968.486a.038.038,0,0,1,.038.038C1.084.562,1.122.6,1.16.6a.421.421,0,0,1,.153.077A.484.484,0,0,0,1.16.409C1.122.371,1.122.332,1.084.332L1.045.294C1.007.294,1.007.255.968.255A1.376,1.376,0,0,0,.623.064.564.564,0,0,0,.2.025C.086-.013.047.064.009.14Z" transform="translate(0 0.934)" fill="#34404b"/>
      </g>
    </g>
  </g>
</svg>
