<svg id="Group_2253" data-name="Group 2253" xmlns="http://www.w3.org/2000/svg" width="69.099" height="11.392" viewBox="0 0 69.099 11.392">
  <path id="Path_101" data-name="Path 101" d="M476.221,106.951a.493.493,0,0,1-.13.26,4.138,4.138,0,0,1-3.38,1.5,4.612,4.612,0,0,1-3.51-1.5,5.566,5.566,0,0,1,0-7.15,4.321,4.321,0,0,1,3.445-1.56,4.554,4.554,0,0,1,3.51,1.365c.065.13.13.195.13.26a4.256,4.256,0,0,1-.455.975,8.3,8.3,0,0,1-.585.975c-.065.065-.065.065-.13.065a1.439,1.439,0,0,1-.325-.26c-.26-.2-.52-.39-.715-.52a2.549,2.549,0,0,0-1.17-.26,1.972,1.972,0,0,0-1.625.78,2.926,2.926,0,0,0,0,3.51,1.972,1.972,0,0,0,1.625.78,2.548,2.548,0,0,0,1.17-.26,4.376,4.376,0,0,0,.715-.455,1.437,1.437,0,0,1,.325-.26c.065,0,.065,0,.13.065s.26.39.585.845c.2.52.39.78.39.845Z" transform="translate(-467.9 -97.91)" fill="#3b3a3a"/>
  <path id="Path_102" data-name="Path 102" d="M490.681,103.635a5.168,5.168,0,0,1-1.365,3.64,5.022,5.022,0,0,1-7.151,0,5.059,5.059,0,0,1-1.365-3.64,5.167,5.167,0,0,1,1.365-3.64,5.022,5.022,0,0,1,7.151,0,5.28,5.28,0,0,1,1.365,3.64Zm-2.6,0a2.353,2.353,0,0,0-.65-1.755,2.1,2.1,0,0,0-1.69-.78,2.189,2.189,0,0,0-1.69.78,2.563,2.563,0,0,0-.65,1.755,2.354,2.354,0,0,0,.65,1.755,2.043,2.043,0,0,0,1.69.715,2.189,2.189,0,0,0,1.69-.78,2.6,2.6,0,0,0,.65-1.69Z" transform="translate(-472.415 -97.91)" fill="#3b3a3a"/>
  <path id="Path_103" data-name="Path 103" d="M506.036,103.71a5.207,5.207,0,0,1-1.3,3.51,4.348,4.348,0,0,1-3.25,1.43h-4.29c-.13,0-.195-.065-.195-.13,0-.52,0-1.3.065-2.275.065-1.04.065-1.755.065-2.275s0-1.3-.065-2.405C497,100.525,497,99.68,497,99.16q0-.1.195-.2a10.163,10.163,0,0,1,1.625-.065,27.715,27.715,0,0,1,2.8.065,5.58,5.58,0,0,1,2.6.845,3.779,3.779,0,0,1,1.365,1.755,6.346,6.346,0,0,1,.455,2.145Zm-2.665,0a2.6,2.6,0,0,0-.715-1.885,2.4,2.4,0,0,0-1.885-.78c-.715,0-1.04.065-1.04.26v4.94c0,.2.39.325,1.105.325a2.4,2.4,0,0,0,1.885-.78,3.184,3.184,0,0,0,.65-2.08Z" transform="translate(-478.084 -98.05)" fill="#3b3a3a"/>
  <path id="Path_104" data-name="Path 104" d="M518.915,106.61c0,.2-.065.585-.13,1.105a4.025,4.025,0,0,1-.2,1.04.338.338,0,0,1-.26.13h-.2a27.84,27.84,0,0,0-2.99-.065H511.96c-.13,0-.26-.065-.26-.2,0-.52,0-1.3.065-2.34s.065-1.82.065-2.34,0-1.5-.065-2.925c0-.39-.065-.91-.065-1.625V99.33c0-.13.065-.13.195-.13h6.24c.26,0,.39.065.39.26,0,.13.065.455.13.975a7.429,7.429,0,0,1,.065.975.14.14,0,0,1-.13.13h-.13a30.561,30.561,0,0,0-3.315-.13c-.26,0-.39.065-.455.2a3.5,3.5,0,0,0-.065.52,1.4,1.4,0,0,0,.13.65.758.758,0,0,0,.455.13h.585a15.836,15.836,0,0,0,1.755-.065,1.144,1.144,0,0,0,.39-.065h.39c.13,0,.2.065.2.13a5.776,5.776,0,0,0-.13,1.04,6.307,6.307,0,0,0-.065,1.105c0,.065-.065.13-.2.13a5.3,5.3,0,0,1-.65-.065c-.26,0-.845-.065-1.82-.065h-.715c-.2,0-.325.065-.325.13v.455a1.458,1.458,0,0,0,.065.65c.065.2.39.26.91.325h1.04a7.976,7.976,0,0,0,1.1-.065,7.52,7.52,0,0,1,1.105-.065c0-.13.065-.065.065.13Z" transform="translate(-483.228 -98.155)" fill="#3b3a3a"/>
  <path id="Path_105" data-name="Path 105" d="M546.536,108.836a.239.239,0,0,1-.065.2.5.5,0,0,0-.195.065c-.26,0-.65.065-1.17.065a4.69,4.69,0,0,1-1.235-.065.172.172,0,0,1-.2-.195,15.456,15.456,0,0,1,.065-1.56c0-.715.065-1.235.065-1.56a.382.382,0,0,0-.13-.325,20.351,20.351,0,0,0-3.25,0c-.13,0-.13.13-.13.325,0,.325,0,.845.065,1.56v1.56c0,.13-.065.195-.195.26-.13,0-.585.065-1.3.065a4.982,4.982,0,0,1-1.17-.065.172.172,0,0,1-.195-.2c0-.455,0-1.235.065-2.145.065-.975.065-1.69.065-2.21s0-1.3-.065-2.34-.065-1.82-.065-2.34c0-.13.065-.13.13-.13h2.6a.14.14,0,0,1,.13.13,14.342,14.342,0,0,1-.065,1.5,14.317,14.317,0,0,0-.065,1.5c0,.13.065.26.13.26a22.859,22.859,0,0,0,3.445,0c.13,0,.13-.13.13-.26a13.26,13.26,0,0,0-.065-1.43c0-.65-.065-1.105-.065-1.43a.172.172,0,0,1,.2-.2h2.34c.13,0,.2.065.2.13,0,.52,0,1.3-.065,2.34s-.065,1.82-.065,2.34c0,.455,0,1.235.065,2.21.065.78.065,1.5.065,1.95Z" transform="translate(-492.257 -98.365)" fill="#3b3a3a"/>
  <path id="Path_106" data-name="Path 106" d="M559.591,106.845c0,.195-.065.52-.13,1.04a2.779,2.779,0,0,1-.195.975c-.065.065-.13.13-.2.13h-.2a26.271,26.271,0,0,0-2.86-.065h-3.12a.172.172,0,0,1-.195-.195c0-.52,0-1.235.065-2.275.065-.975.065-1.755.065-2.275s0-1.43-.065-2.86c0-.325-.065-.91-.065-1.625V99.63c0-.13.065-.13.195-.13h5.981c.26,0,.39.065.39.26,0,.13.065.39.13.91a7.344,7.344,0,0,1,.065.91.14.14,0,0,1-.13.13h-.13a28.844,28.844,0,0,0-3.25-.13c-.26,0-.39.065-.455.2a2.451,2.451,0,0,0-.065.52.935.935,0,0,0,.13.585.621.621,0,0,0,.455.13h.585a14.141,14.141,0,0,0,1.69-.065,1.145,1.145,0,0,0,.39-.065h.39c.13,0,.195.065.195.13a5.791,5.791,0,0,0-.13,1.04,5.6,5.6,0,0,0-.065,1.04c0,.065-.065.13-.2.13a4.014,4.014,0,0,1-.585-.065c-.26,0-.845-.065-1.755-.065h-.715a.382.382,0,0,0-.325.13v.39a1.458,1.458,0,0,0,.065.65c.065.2.39.26.845.325h.975a6.739,6.739,0,0,0,1.04-.065,7.178,7.178,0,0,1,1.04-.065c.065.195.13.26.13.39Z" transform="translate(-497.576 -98.26)" fill="#3b3a3a"/>
  <path id="Path_107" data-name="Path 107" d="M570.3,101.875a9.909,9.909,0,0,1-1.17-.065,15.431,15.431,0,0,0-1.56-.065,2.04,2.04,0,0,0-.78.065c-.195.065-.26.26-.26.65s.13.65.325.715c.065,0,.26.065.39.065a11.611,11.611,0,0,0,1.365-.065,12.8,12.8,0,0,1,1.365-.065q.2,0,.2,1.17a4.077,4.077,0,0,1-.065,1.17c0,.065-.065.13-.2.13.065,0-.065,0-.455-.065a19.7,19.7,0,0,0-2.21-.065h-.52c-.26.065-.325.13-.325.26,0,.65,0,1.365.065,2.21.065.715.065,1.04.065.975,0,.13-.13.195-.455.195h-.585a9.281,9.281,0,0,1-1.625-.065.208.208,0,0,1-.2-.195c0-.52,0-1.235.065-2.21s.065-1.755.065-2.21c0-.585,0-1.3-.065-2.21-.065-1.365-.13-2.08-.13-2.21v-.065a.172.172,0,0,1,.195-.2h2.99c.39,0,.91,0,1.625-.065s1.235-.065,1.625-.065a.356.356,0,0,1,.39.26v.845a5.041,5.041,0,0,1,.065.585c-.023.238-.065.39-.065.52A.227.227,0,0,1,570.3,101.875Z" transform="translate(-501.391 -98.295)" fill="#3b3a3a"/>
  <path id="Path_108" data-name="Path 108" d="M533.446,104.943c.065.065,0,.2,0,.39a4.731,4.731,0,0,1-2.665,3.12,4.915,4.915,0,0,1-4.16.13,5.627,5.627,0,0,1-2.925-3.055,5.991,5.991,0,0,1-.325-4.225,4.828,4.828,0,0,1,2.73-3.12,4.584,4.584,0,0,1,4.1-.2.9.9,0,0,1,.26.2,4.513,4.513,0,0,1-.065,1.235,5.05,5.05,0,0,1-.2,1.235c0,.065-.065.065-.13.13a1.122,1.122,0,0,1-.455-.13,2.609,2.609,0,0,0-.975-.195,2.639,2.639,0,0,0-1.235.26,2.455,2.455,0,0,0-1.3,1.5,3.644,3.644,0,0,0,.2,2.015,3.245,3.245,0,0,0,1.365,1.56,2.279,2.279,0,0,0,1.95.065,3.966,3.966,0,0,0,1.04-.78,4.806,4.806,0,0,0,.52-.845l.195-.39h.2q.2.1.975.585a4.514,4.514,0,0,1,.91.52Z" transform="translate(-487.228 -97.592)" fill="#3b3a3a"/>
</svg>
