<svg id="Group_2252" data-name="Group 2252" xmlns="http://www.w3.org/2000/svg" width="90.613" height="9.848" viewBox="0 0 32.613 4.848">
  <g id="Path_1382" data-name="Path 1382" transform="translate(0 4.848) rotate(-90)" fill="#387fcb" stroke-linecap="round">
    <path d="M 2.423911094665527 3.847795248031616 C 1.638761043548584 3.847795248031616 1.000001072883606 3.209035396575928 1.000001072883606 2.423895359039307 C 1.000001072883606 1.638755321502686 1.638761043548584 0.9999953508377075 2.423911094665527 0.9999953508377075 C 3.209061145782471 0.9999953508377075 3.847820997238159 1.638755321502686 3.847820997238159 2.423895359039307 C 3.847820997238159 3.209035396575928 3.209061145782471 3.847795248031616 2.423911094665527 3.847795248031616 Z" stroke="none"/>
    <path d="M 2.423911094665527 1.999995470046997 C 2.190171003341675 1.999995470046997 2.000001192092896 2.190155267715454 2.000001192092896 2.423895359039307 C 2.000001192092896 2.657635450363159 2.190171003341675 2.847795486450195 2.423911094665527 2.847795486450195 C 2.65765118598938 2.847795486450195 2.847820997238159 2.657635450363159 2.847820997238159 2.423895359039307 C 2.847820997238159 2.190155267715454 2.65765118598938 1.999995470046997 2.423911094665527 1.999995470046997 M 2.423911094665527 -4.76837158203125e-06 C 3.762601137161255 -4.76837158203125e-06 4.847821235656738 1.085215330123901 4.847821235656738 2.423895359039307 C 4.847821235656738 3.762575387954712 3.762601137161255 4.847795486450195 2.423911094665527 4.847795486450195 C 1.0852210521698 4.847795486450195 9.5367431640625e-07 3.762575387954712 9.5367431640625e-07 2.423895359039307 C 9.5367431640625e-07 1.085215330123901 1.0852210521698 -4.76837158203125e-06 2.423911094665527 -4.76837158203125e-06 Z" stroke="none" fill="#387fcb"/>
  </g>
  <g id="Path_1383" data-name="Path 1383" transform="translate(9.255 4.848) rotate(-90)" fill="#cecece" stroke-linecap="round">
    <path d="M 2.423911094665527 3.847795248031616 C 1.638761043548584 3.847795248031616 1.000001072883606 3.209035396575928 1.000001072883606 2.423895359039307 C 1.000001072883606 1.638755321502686 1.638761043548584 0.9999953508377075 2.423911094665527 0.9999953508377075 C 3.209061145782471 0.9999953508377075 3.847820997238159 1.638755321502686 3.847820997238159 2.423895359039307 C 3.847820997238159 3.209035396575928 3.209061145782471 3.847795248031616 2.423911094665527 3.847795248031616 Z" stroke="none"/>
    <path d="M 2.423911094665527 1.999995470046997 C 2.190171003341675 1.999995470046997 2.000001192092896 2.190155267715454 2.000001192092896 2.423895359039307 C 2.000001192092896 2.657635450363159 2.190171003341675 2.847795486450195 2.423911094665527 2.847795486450195 C 2.65765118598938 2.847795486450195 2.847820997238159 2.657635450363159 2.847820997238159 2.423895359039307 C 2.847820997238159 2.190155267715454 2.65765118598938 1.999995470046997 2.423911094665527 1.999995470046997 M 2.423911094665527 -4.76837158203125e-06 C 3.762601137161255 -4.76837158203125e-06 4.847821235656738 1.085215330123901 4.847821235656738 2.423895359039307 C 4.847821235656738 3.762575387954712 3.762601137161255 4.847795486450195 2.423911094665527 4.847795486450195 C 1.0852210521698 4.847795486450195 9.5367431640625e-07 3.762575387954712 9.5367431640625e-07 2.423895359039307 C 9.5367431640625e-07 1.085215330123901 1.0852210521698 -4.76837158203125e-06 2.423911094665527 -4.76837158203125e-06 Z" stroke="none" fill="#cecece"/>
  </g>
  <g id="Path_1384" data-name="Path 1384" transform="translate(18.51 4.848) rotate(-90)" fill="#cecece" stroke-linecap="round">
    <path d="M 2.423911094665527 3.847795248031616 C 1.638761043548584 3.847795248031616 1.000001072883606 3.209035396575928 1.000001072883606 2.423895359039307 C 1.000001072883606 1.638755321502686 1.638761043548584 0.9999953508377075 2.423911094665527 0.9999953508377075 C 3.209061145782471 0.9999953508377075 3.847820997238159 1.638755321502686 3.847820997238159 2.423895359039307 C 3.847820997238159 3.209035396575928 3.209061145782471 3.847795248031616 2.423911094665527 3.847795248031616 Z" stroke="none"/>
    <path d="M 2.423911094665527 1.999995470046997 C 2.190171003341675 1.999995470046997 2.000001192092896 2.190155267715454 2.000001192092896 2.423895359039307 C 2.000001192092896 2.657635450363159 2.190171003341675 2.847795486450195 2.423911094665527 2.847795486450195 C 2.65765118598938 2.847795486450195 2.847820997238159 2.657635450363159 2.847820997238159 2.423895359039307 C 2.847820997238159 2.190155267715454 2.65765118598938 1.999995470046997 2.423911094665527 1.999995470046997 M 2.423911094665527 -4.76837158203125e-06 C 3.762601137161255 -4.76837158203125e-06 4.847821235656738 1.085215330123901 4.847821235656738 2.423895359039307 C 4.847821235656738 3.762575387954712 3.762601137161255 4.847795486450195 2.423911094665527 4.847795486450195 C 1.0852210521698 4.847795486450195 9.5367431640625e-07 3.762575387954712 9.5367431640625e-07 2.423895359039307 C 9.5367431640625e-07 1.085215330123901 1.0852210521698 -4.76837158203125e-06 2.423911094665527 -4.76837158203125e-06 Z" stroke="none" fill="#cecece"/>
  </g>
  <g id="Path_1385" data-name="Path 1385" transform="translate(27.766 4.848) rotate(-90)" fill="#cecece" stroke-linecap="round">
    <path d="M 2.423911094665527 3.847795248031616 C 1.638761043548584 3.847795248031616 1.000001072883606 3.209035396575928 1.000001072883606 2.423895359039307 C 1.000001072883606 1.638755321502686 1.638761043548584 0.9999953508377075 2.423911094665527 0.9999953508377075 C 3.209061145782471 0.9999953508377075 3.847820997238159 1.638755321502686 3.847820997238159 2.423895359039307 C 3.847820997238159 3.209035396575928 3.209061145782471 3.847795248031616 2.423911094665527 3.847795248031616 Z" stroke="none"/>
    <path d="M 2.423911094665527 1.999995470046997 C 2.190171003341675 1.999995470046997 2.000001192092896 2.190155267715454 2.000001192092896 2.423895359039307 C 2.000001192092896 2.657635450363159 2.190171003341675 2.847795486450195 2.423911094665527 2.847795486450195 C 2.65765118598938 2.847795486450195 2.847820997238159 2.657635450363159 2.847820997238159 2.423895359039307 C 2.847820997238159 2.190155267715454 2.65765118598938 1.999995470046997 2.423911094665527 1.999995470046997 M 2.423911094665527 -4.76837158203125e-06 C 3.762601137161255 -4.76837158203125e-06 4.847821235656738 1.085215330123901 4.847821235656738 2.423895359039307 C 4.847821235656738 3.762575387954712 3.762601137161255 4.847795486450195 2.423911094665527 4.847795486450195 C 1.0852210521698 4.847795486450195 9.5367431640625e-07 3.762575387954712 9.5367431640625e-07 2.423895359039307 C 9.5367431640625e-07 1.085215330123901 1.0852210521698 -4.76837158203125e-06 2.423911094665527 -4.76837158203125e-06 Z" stroke="none" fill="#cecece"/>
  </g>
</svg>