<svg xmlns="http://www.w3.org/2000/svg" width="25.727" height="19.999" viewBox="0 0 25.727 19.999">
  <path id="google_" data-name="google +" d="M1328.956,25h-6.732c-3.018,0-5.858,2.1-5.858,4.54,0,2.49,2.058,4.5,5.128,4.5.214,0,.421,0,.624-.017a2.372,2.372,0,0,0-.342,1.157,2.343,2.343,0,0,0,.916,1.711c-.386,0-.76.01-1.167.01-3.738,0-6.615,2.191-6.615,4.462,0,2.237,3.154,3.637,6.892,3.637,4.262,0,6.615-2.226,6.615-4.462,0-1.794-.575-2.868-2.354-4.025-.608-.4-1.772-1.361-1.772-1.927,0-.664.206-.991,1.292-1.771a4.081,4.081,0,0,0,1.9-3.235,3.646,3.646,0,0,0-2.17-3.578h2.135Zm-2.351,15.151a2.558,2.558,0,0,1,.083.639c0,1.808-1.266,3.22-4.9,3.22-2.583,0-4.45-1.505-4.45-3.313,0-1.771,2.315-3.246,4.9-3.221a6.071,6.071,0,0,1,1.675.247C1325.315,38.62,1326.322,39.128,1326.605,40.151Zm-4.137-6.743c-1.735-.048-3.383-1.785-3.682-3.88s.863-3.7,2.6-3.652,3.383,1.729,3.682,3.825S1324.2,33.456,1322.468,33.408Zm13.345-3.97V25h-1.608v4.439h-4.824v1.479h4.824v4.438h1.608V30.917h4.824V29.438Z" transform="translate(-1314.91 -24.999)" fill="#ff5912"/>
</svg>
