<svg xmlns="http://www.w3.org/2000/svg" width="22.7" height="19.997" viewBox="0 0 22.7 19.997">
  <path id="instegram" d="M1362.073,25h-15.163a3.576,3.576,0,0,0-3.769,3.319V41.677a3.576,3.576,0,0,0,3.769,3.32h15.163a3.576,3.576,0,0,0,3.769-3.32V28.319A3.576,3.576,0,0,0,1362.073,25Zm-11.665,8.749h8.167a3.387,3.387,0,0,1,.24,1.25,4.358,4.358,0,0,1-8.646,0A3.386,3.386,0,0,1,1350.408,33.749Zm12.6,0v7.5a1.346,1.346,0,0,1-1.419,1.25H1347.4a1.346,1.346,0,0,1-1.419-1.25v-7.5h2.219a5.035,5.035,0,0,0-.157,1.25c0,3.133,2.894,5.682,6.451,5.682s6.451-2.549,6.451-5.682a5.035,5.035,0,0,0-.158-1.25H1363Zm0-4.375a.673.673,0,0,1-.709.625h-1.419a.673.673,0,0,1-.709-.625v-1.25a.673.673,0,0,1,.709-.625h1.419a.673.673,0,0,1,.709.625Z" transform="translate(-1343.142 -25)" fill="#ff5912"/>
</svg>
