<svg xmlns="http://www.w3.org/2000/svg" xmlns:xlink="http://www.w3.org/1999/xlink" width="17.419" height="10.451" viewBox="0 0 17.419 10.451">
  <defs>
    <clipPath id="clip-path">
      <rect width="17.42" height="10.451" fill="none"/>
    </clipPath>
  </defs>
  <g id="Mail_Ico" data-name="Mail Ico" transform="translate(0 0)" clip-path="url(#clip-path)">
    <path id="Color_Overlay" data-name="Color Overlay" d="M.29,10.451A.283.283,0,0,1,0,10.175V.275A.283.283,0,0,1,.29,0H17.129a.284.284,0,0,1,.291.275v9.9a.284.284,0,0,1-.291.275ZM.581,9.9H16.839V.551H.581ZM15.526,8.473,10.482,5.729,9.318,6.6c-.006,0-.014,0-.021.007a.27.27,0,0,1-.317,0c-.006,0-.016,0-.022-.007L7.795,5.729,2.75,8.473a.3.3,0,0,1-.145.037.293.293,0,0,1-.251-.139A.266.266,0,0,1,2.462,8L7.3,5.361,2.426,1.711a.266.266,0,0,1-.049-.386.3.3,0,0,1,.408-.045L9.139,6.033,15.492,1.28a.3.3,0,0,1,.407.045.266.266,0,0,1-.048.386l-4.879,3.65L15.815,8a.265.265,0,0,1,.107.374.3.3,0,0,1-.4.1Z" fill="#ff5912"/>
  </g>
</svg>
