<svg xmlns="http://www.w3.org/2000/svg" xmlns:xlink="http://www.w3.org/1999/xlink" width="11.803" height="11.803" viewBox="0 0 11.803 11.803">
  <defs>
    <clipPath id="clip-path">
      <rect width="11.803" height="11.804" fill="none"/>
    </clipPath>
  </defs>
  <g id="Phone_Ico" data-name="Phone Ico" transform="translate(0 0)" clip-path="url(#clip-path)">
    <path id="Color_Overlay" data-name="Color Overlay" d="M.934,11.8A.935.935,0,0,1,0,10.868V.934A.935.935,0,0,1,.934,0H3a.934.934,0,0,1,.761.393h7.845a.2.2,0,0,1,.2.2V11.213a.2.2,0,0,1-.2.2H3.761A.932.932,0,0,1,3,11.8ZM.393.934v9.934a.541.541,0,0,0,.541.541H3a.541.541,0,0,0,.541-.541V.934A.542.542,0,0,0,3,.393H.934A.541.541,0,0,0,.393.934ZM3.934,11.016h7.475V.787H3.934Zm1.377-1.18a.2.2,0,0,1-.2-.2V4.918a.2.2,0,0,1,.2-.2h4.721a.2.2,0,0,1,.2.2V9.639a.2.2,0,0,1-.2.2Zm3.344-.393h1.18V8.262H8.655Zm-1.574,0H8.262V8.262H7.081Zm-1.573,0h1.18V8.262H5.508ZM8.655,7.869h1.18V6.688H8.655Zm-1.574,0H8.262V6.688H7.081Zm-1.573,0h1.18V6.688H5.508ZM8.655,6.295h1.18V5.115H8.655Zm-1.574,0H8.262V5.115H7.081Zm-1.573,0h1.18V5.115H5.508Zm-.2-1.967a.2.2,0,0,1-.2-.2V2.164a.2.2,0,0,1,.2-.2h4.721a.2.2,0,0,1,.2.2V4.131a.2.2,0,0,1-.2.2Zm.2-.393H9.835V2.361H5.508Z" fill="#ff5912"/>
  </g>
</svg>
