<svg xmlns="http://www.w3.org/2000/svg" width="27.24" height="20" viewBox="0 0 27.24 20">
  <path id="twitter" d="M1311.748,27.367a12.125,12.125,0,0,1-3.209.8A5.191,5.191,0,0,0,1311,25.369a11.914,11.914,0,0,1-3.549,1.225A5.879,5.879,0,0,0,1303.367,25a5.34,5.34,0,0,0-5.589,5.05,4.6,4.6,0,0,0,.145,1.15,16.485,16.485,0,0,1-11.519-5.276,4.663,4.663,0,0,0-.757,2.539,4.94,4.94,0,0,0,2.486,4.2,6.027,6.027,0,0,1-2.531-.632c0,.021,0,.043,0,.064a5.212,5.212,0,0,0,4.483,4.95,6.149,6.149,0,0,1-2.524.086,5.554,5.554,0,0,0,5.22,3.507,11.992,11.992,0,0,1-6.941,2.161,12.3,12.3,0,0,1-1.333-.071A17.061,17.061,0,0,0,1293.074,45c10.28,0,15.9-7.694,15.9-14.365q0-.328-.016-.654A10.786,10.786,0,0,0,1311.748,27.367Z" transform="translate(-1284.507 -24.999)" fill="#ff5912"/>
</svg>
